<svg width="800" height="600" viewBox="0 0 800 600" fill="none" xmlns="http://www.w3.org/2000/svg">
  <!-- Background -->
  <rect width="800" height="600" fill="#fefce8"/>
  
  <!-- Classroom floor -->
  <rect x="0" y="450" width="800" height="150" fill="#f3f4f6"/>
  
  <!-- Whiteboard -->
  <rect x="50" y="80" width="300" height="200" fill="#ffffff" stroke="#d1d5db" stroke-width="6" rx="10"/>
  
  <!-- Student's presentation on board -->
  <rect x="80" y="110" width="240" height="140" fill="#f9fafb" rx="5"/>
  
  <!-- Presentation title -->
  <text x="200" y="135" font-family="Arial, sans-serif" font-size="16" font-weight="bold" fill="#1f2937" text-anchor="middle">Mon Projet Scientifique</text>
  
  <!-- Diagram -->
  <circle cx="130" cy="170" r="20" fill="#3b82f6"/>
  <text x="130" y="175" font-family="Arial, sans-serif" font-size="8" fill="#ffffff" text-anchor="middle">Soleil</text>
  
  <circle cx="200" cy="170" r="12" fill="#10b981"/>
  <text x="200" y="175" font-family="Arial, sans-serif" font-size="6" fill="#ffffff" text-anchor="middle">Terre</text>
  
  <circle cx="260" cy="170" r="8" fill="#f59e0b"/>
  <text x="260" y="175" font-family="Arial, sans-serif" font-size="5" fill="#ffffff" text-anchor="middle">Lune</text>
  
  <!-- Arrows -->
  <path d="M 150 170 L 180 170" stroke="#6b7280" stroke-width="2" marker-end="url(#arrowhead)"/>
  <path d="M 220 170 L 242 170" stroke="#6b7280" stroke-width="2" marker-end="url(#arrowhead)"/>
  
  <!-- Arrow marker -->
  <defs>
    <marker id="arrowhead" markerWidth="10" markerHeight="7" refX="9" refY="3.5" orient="auto">
      <polygon points="0 0, 10 3.5, 0 7" fill="#6b7280"/>
    </marker>
  </defs>
  
  <!-- Text explanation -->
  <text x="200" y="200" font-family="Arial, sans-serif" font-size="10" fill="#374151" text-anchor="middle">Le système solaire</text>
  <text x="200" y="215" font-family="Arial, sans-serif" font-size="8" fill="#6b7280" text-anchor="middle">Rotation et révolution</text>
  <text x="200" y="230" font-family="Arial, sans-serif" font-size="8" fill="#6b7280" text-anchor="middle">Distances relatives</text>
  
  <!-- Student presenting (main character) -->
  <g transform="translate(400, 280)">
    <!-- Head -->
    <circle cx="0" cy="0" r="25" fill="#f4a261"/>
    <!-- Hair -->
    <path d="M -20 -12 Q 0 -30 20 -12 Q 15 -25 0 -25 Q -15 -25 -20 -12 Z" fill="#6b4423"/>
    <!-- Eyes (confident) -->
    <circle cx="-8" cy="-5" r="2" fill="#000"/>
    <circle cx="8" cy="-5" r="2" fill="#000"/>
    <!-- Smile (proud) -->
    <path d="M -12 8 Q 0 20 12 8" stroke="#000" stroke-width="2" fill="none"/>
    
    <!-- Body -->
    <rect x="-20" y="25" width="40" height="60" fill="#10b981" rx="10"/>
    <!-- Arms (presenting gesture) -->
    <rect x="-50" y="30" width="25" height="35" fill="#10b981" rx="10" transform="rotate(-30 -37.5 47.5)"/>
    <rect x="25" y="30" width="25" height="35" fill="#10b981" rx="10" transform="rotate(30 37.5 47.5)"/>
    <!-- Hands -->
    <circle cx="-45" cy="35" r="8" fill="#f4a261"/>
    <circle cx="45" cy="35" r="8" fill="#f4a261"/>
    
    <!-- Legs -->
    <rect x="-15" y="85" width="12" height="40" fill="#1e293b" rx="6"/>
    <rect x="3" y="85" width="12" height="40" fill="#1e293b" rx="6"/>
    <!-- Shoes -->
    <ellipse cx="-9" cy="130" rx="8" ry="4" fill="#000"/>
    <ellipse cx="9" cy="130" rx="8" ry="4" fill="#000"/>
  </g>
  
  <!-- Pointing stick -->
  <line x1="440" y1="315" x2="320" y2="170" stroke="#8b5cf6" stroke-width="4"/>
  
  <!-- Classmates watching (audience) -->
  <g transform="translate(550, 350)">
    <!-- Student 1 -->
    <g>
      <circle cx="0" cy="0" r="18" fill="#d4a574"/>
      <path d="M -15 -8 Q 0 -22 15 -8 Q 12 -18 0 -18 Q -12 -18 -15 -8 Z" fill="#2d1810"/>
      <circle cx="-6" cy="-3" r="1.5" fill="#000"/>
      <circle cx="6" cy="-3" r="1.5" fill="#000"/>
      <path d="M -8 5 Q 0 12 8 5" stroke="#000" stroke-width="1.5" fill="none"/>
      <rect x="-15" y="18" width="30" height="40" fill="#3b82f6" rx="8"/>
    </g>
    
    <!-- Student 2 -->
    <g transform="translate(60, 0)">
      <circle cx="0" cy="0" r="18" fill="#8b5a3c"/>
      <path d="M -15 -8 Q 0 -22 15 -8 Q 12 -18 0 -18 Q -12 -18 -15 -8 Z" fill="#6b4423"/>
      <circle cx="-6" cy="-3" r="1.5" fill="#000"/>
      <circle cx="6" cy="-3" r="1.5" fill="#000"/>
      <path d="M -8 5 Q 0 12 8 5" stroke="#000" stroke-width="1.5" fill="none"/>
      <rect x="-15" y="18" width="30" height="40" fill="#f59e0b" rx="8"/>
    </g>
    
    <!-- Student 3 -->
    <g transform="translate(120, 0)">
      <circle cx="0" cy="0" r="18" fill="#e29578"/>
      <path d="M -15 -8 Q 0 -22 15 -8 Q 12 -18 0 -18 Q -12 -18 -15 -8 Z" fill="#8b4513"/>
      <circle cx="-6" cy="-3" r="1.5" fill="#000"/>
      <circle cx="6" cy="-3" r="1.5" fill="#000"/>
      <path d="M -8 5 Q 0 12 8 5" stroke="#000" stroke-width="1.5" fill="none"/>
      <rect x="-15" y="18" width="30" height="40" fill="#ef4444" rx="8"/>
    </g>
  </g>
  
  <!-- Desks for audience -->
  <rect x="530" y="420" width="70" height="45" fill="#9ca3af" rx="8"/>
  <rect x="620" y="420" width="70" height="45" fill="#9ca3af" rx="8"/>
  <rect x="710" y="420" width="70" height="45" fill="#9ca3af" rx="8"/>
  
  <!-- Desk surfaces -->
  <rect x="535" y="415" width="60" height="35" fill="#d1d5db" rx="5"/>
  <rect x="625" y="415" width="60" height="35" fill="#d1d5db" rx="5"/>
  <rect x="715" y="415" width="60" height="35" fill="#d1d5db" rx="5"/>
  
  <!-- Notebooks on desks -->
  <rect x="545" y="410" width="20" height="15" fill="#ffffff" rx="2"/>
  <rect x="570" y="410" width="20" height="15" fill="#ffffff" rx="2"/>
  <rect x="635" y="410" width="20" height="15" fill="#ffffff" rx="2"/>
  <rect x="660" y="410" width="20" height="15" fill="#ffffff" rx="2"/>
  <rect x="725" y="410" width="20" height="15" fill="#ffffff" rx="2"/>
  <rect x="750" y="410" width="20" height="15" fill="#ffffff" rx="2"/>
  
  <!-- Speech bubble -->
  <ellipse cx="500" cy="220" rx="80" ry="30" fill="#ffffff" stroke="#d1d5db" stroke-width="2"/>
  <path d="M 460 240 L 440 260 L 480 250 Z" fill="#ffffff" stroke="#d1d5db" stroke-width="2"/>
  <text x="500" y="215" font-family="Arial, sans-serif" font-size="12" fill="#374151" text-anchor="middle">Les planètes tournent</text>
  <text x="500" y="230" font-family="Arial, sans-serif" font-size="12" fill="#374151" text-anchor="middle">autour du soleil</text>
  
  <!-- Applause indicators -->
  <g transform="translate(580, 290)">
    <text x="0" y="0" font-family="Arial, sans-serif" font-size="16">👏</text>
    <text x="20" y="-10" font-family="Arial, sans-serif" font-size="12">👏</text>
    <text x="40" y="5" font-family="Arial, sans-serif" font-size="14">👏</text>
  </g>
  
  <!-- Teacher in background -->
  <g transform="translate(700, 220)">
    <!-- Head -->
    <circle cx="0" cy="0" r="20" fill="#d4a574"/>
    <!-- Hair -->
    <path d="M -16 -10 Q 0 -25 16 -10 Q 12 -20 0 -20 Q -12 -20 -16 -10 Z" fill="#2d1810"/>
    <!-- Eyes (proud) -->
    <circle cx="-6" cy="-3" r="2" fill="#000"/>
    <circle cx="6" cy="-3" r="2" fill="#000"/>
    <!-- Smile -->
    <path d="M -8 5 Q 0 12 8 5" stroke="#000" stroke-width="1.5" fill="none"/>
    
    <!-- Body -->
    <rect x="-16" y="20" width="32" height="50" fill="#8b5cf6" rx="8"/>
    <!-- Arms (clapping) -->
    <rect x="-35" y="30" width="15" height="25" fill="#8b5cf6" rx="7"/>
    <rect x="20" y="30" width="15" height="25" fill="#8b5cf6" rx="7"/>
    <!-- Hands clapping -->
    <circle cx="-22" cy="45" r="6" fill="#d4a574"/>
    <circle cx="22" cy="45" r="6" fill="#d4a574"/>
  </g>
  
  <!-- Star ratings/feedback -->
  <g transform="translate(650, 150)">
    <text x="0" y="0" font-family="Arial, sans-serif" font-size="20" fill="#fbbf24">⭐</text>
    <text x="25" y="0" font-family="Arial, sans-serif" font-size="20" fill="#fbbf24">⭐</text>
    <text x="50" y="0" font-family="Arial, sans-serif" font-size="20" fill="#fbbf24">⭐</text>
    <text x="75" y="0" font-family="Arial, sans-serif" font-size="20" fill="#fbbf24">⭐</text>
    <text x="100" y="0" font-family="Arial, sans-serif" font-size="20" fill="#fbbf24">⭐</text>
    <text x="50" y="25" font-family="Arial, sans-serif" font-size="10" fill="#6b7280" text-anchor="middle">Excellente présentation!</text>
  </g>
  
  <!-- Confidence indicator -->
  <rect x="350" y="500" width="100" height="8" fill="#e5e7eb" rx="4"/>
  <rect x="350" y="500" width="95" height="8" fill="#10b981" rx="4"/>
  <text x="400" y="525" font-family="Arial, sans-serif" font-size="12" fill="#374151" text-anchor="middle">Confiance: 95%</text>
  
  <!-- Title -->
  <text x="400" y="40" font-family="Arial, sans-serif" font-size="24" font-weight="bold" fill="#1e293b" text-anchor="middle">Participation Active</text>
  <text x="400" y="65" font-family="Arial, sans-serif" font-size="14" fill="#64748b" text-anchor="middle">Développer la confiance en soi</text>
</svg>
