<svg width="800" height="600" viewBox="0 0 800 600" fill="none" xmlns="http://www.w3.org/2000/svg">
  <!-- Background -->
  <rect width="800" height="600" fill="#f8fafc"/>
  
  <!-- Classroom floor -->
  <rect x="0" y="400" width="800" height="200" fill="#e2e8f0"/>
  
  <!-- Blackboard -->
  <rect x="50" y="100" width="300" height="200" fill="#1e293b" stroke="#475569" stroke-width="8"/>
  
  <!-- Math equations on blackboard -->
  <text x="80" y="140" font-family="Arial, sans-serif" font-size="16" fill="#ffffff">2x + 3 = 11</text>
  <text x="80" y="170" font-family="Arial, sans-serif" font-size="16" fill="#ffffff">x = 4</text>
  <text x="80" y="210" font-family="Arial, sans-serif" font-size="14" fill="#94a3b8">Équation du 1er degré</text>
  <text x="80" y="240" font-family="Arial, sans-serif" font-size="14" fill="#94a3b8">Méthode de résolution</text>
  
  <!-- Teacher -->
  <g transform="translate(400, 250)">
    <!-- Head -->
    <circle cx="0" cy="0" r="25" fill="#d4a574"/>
    <!-- Hair -->
    <path d="M -20 -15 Q 0 -35 20 -15 Q 15 -30 0 -30 Q -15 -30 -20 -15 Z" fill="#2d1810"/>
    <!-- Eyes -->
    <circle cx="-8" cy="-5" r="2" fill="#000"/>
    <circle cx="8" cy="-5" r="2" fill="#000"/>
    <!-- Smile -->
    <path d="M -10 8 Q 0 18 10 8" stroke="#000" stroke-width="2" fill="none"/>
    
    <!-- Body -->
    <rect x="-20" y="25" width="40" height="60" fill="#3b82f6" rx="10"/>
    <!-- Arms -->
    <rect x="-45" y="35" width="20" height="30" fill="#3b82f6" rx="10"/>
    <rect x="25" y="35" width="20" height="30" fill="#3b82f6" rx="10"/>
    <!-- Pointing hand -->
    <circle cx="50" cy="50" r="8" fill="#d4a574"/>
    
    <!-- Legs -->
    <rect x="-15" y="85" width="12" height="40" fill="#1e293b" rx="6"/>
    <rect x="3" y="85" width="12" height="40" fill="#1e293b" rx="6"/>
    <!-- Shoes -->
    <ellipse cx="-9" cy="130" rx="8" ry="4" fill="#000"/>
    <ellipse cx="9" cy="130" rx="8" ry="4" fill="#000"/>
  </g>
  
  <!-- Pointer stick -->
  <line x1="445" y1="300" x2="320" y2="200" stroke="#8b5cf6" stroke-width="3"/>
  
  <!-- Students desks -->
  <g transform="translate(500, 320)">
    <!-- Desk 1 -->
    <rect x="0" y="0" width="60" height="40" fill="#94a3b8" rx="5"/>
    <rect x="5" y="-5" width="50" height="35" fill="#cbd5e1" rx="3"/>
    
    <!-- Student 1 -->
    <g transform="translate(30, -25)">
      <circle cx="0" cy="0" r="15" fill="#f4a261"/>
      <path d="M -12 -8 Q 0 -20 12 -8 Q 8 -18 0 -18 Q -8 -18 -12 -8 Z" fill="#6b4423"/>
      <circle cx="-5" cy="-2" r="1.5" fill="#000"/>
      <circle cx="5" cy="-2" r="1.5" fill="#000"/>
      <path d="M -6 6 Q 0 12 6 6" stroke="#000" stroke-width="1" fill="none"/>
      <rect x="-12" y="15" width="24" height="25" fill="#10b981" rx="5"/>
    </g>
  </g>
  
  <g transform="translate(600, 320)">
    <!-- Desk 2 -->
    <rect x="0" y="0" width="60" height="40" fill="#94a3b8" rx="5"/>
    <rect x="5" y="-5" width="50" height="35" fill="#cbd5e1" rx="3"/>
    
    <!-- Student 2 -->
    <g transform="translate(30, -25)">
      <circle cx="0" cy="0" r="15" fill="#8b5a3c"/>
      <path d="M -12 -8 Q 0 -20 12 -8 Q 8 -18 0 -18 Q -8 -18 -12 -8 Z" fill="#2d1810"/>
      <circle cx="-5" cy="-2" r="1.5" fill="#000"/>
      <circle cx="5" cy="-2" r="1.5" fill="#000"/>
      <path d="M -6 6 Q 0 12 6 6" stroke="#000" stroke-width="1" fill="none"/>
      <rect x="-12" y="15" width="24" height="25" fill="#f59e0b" rx="5"/>
    </g>
  </g>
  
  <g transform="translate(700, 320)">
    <!-- Desk 3 -->
    <rect x="0" y="0" width="60" height="40" fill="#94a3b8" rx="5"/>
    <rect x="5" y="-5" width="50" height="35" fill="#cbd5e1" rx="3"/>
    
    <!-- Student 3 -->
    <g transform="translate(30, -25)">
      <circle cx="0" cy="0" r="15" fill="#e29578"/>
      <path d="M -12 -8 Q 0 -20 12 -8 Q 8 -18 0 -18 Q -8 -18 -12 -8 Z" fill="#8b4513"/>
      <circle cx="-5" cy="-2" r="1.5" fill="#000"/>
      <circle cx="5" cy="-2" r="1.5" fill="#000"/>
      <path d="M -6 6 Q 0 12 6 6" stroke="#000" stroke-width="1" fill="none"/>
      <rect x="-12" y="15" width="24" height="25" fill="#ef4444" rx="5"/>
    </g>
  </g>
  
  <!-- Books on desks -->
  <rect x="515" y="310" width="15" height="8" fill="#3b82f6" rx="1"/>
  <rect x="532" y="310" width="15" height="8" fill="#10b981" rx="1"/>
  <rect x="615" y="310" width="15" height="8" fill="#f59e0b" rx="1"/>
  <rect x="632" y="310" width="15" height="8" fill="#ef4444" rx="1"/>
  <rect x="715" y="310" width="15" height="8" fill="#8b5cf6" rx="1"/>
  <rect x="732" y="310" width="15" height="8" fill="#06b6d4" rx="1"/>
  
  <!-- Window -->
  <rect x="550" y="80" width="200" height="150" fill="#e0f2fe" stroke="#0ea5e9" stroke-width="3"/>
  <line x1="650" y1="80" x2="650" y2="230" stroke="#0ea5e9" stroke-width="2"/>
  <line x1="550" y1="155" x2="750" y2="155" stroke="#0ea5e9" stroke-width="2"/>
  
  <!-- Clouds in window -->
  <circle cx="600" cy="120" r="15" fill="#ffffff" opacity="0.8"/>
  <circle cx="615" cy="125" r="12" fill="#ffffff" opacity="0.8"/>
  <circle cx="630" cy="120" r="15" fill="#ffffff" opacity="0.8"/>
  <circle cx="680" cy="140" r="12" fill="#ffffff" opacity="0.8"/>
  <circle cx="695" cy="135" r="15" fill="#ffffff" opacity="0.8"/>
  <circle cx="710" cy="140" r="12" fill="#ffffff" opacity="0.8"/>
  
  <!-- Thought bubbles from students -->
  <circle cx="530" cy="240" r="8" fill="#ffffff" stroke="#cbd5e1" stroke-width="1"/>
  <circle cx="520" cy="250" r="5" fill="#ffffff" stroke="#cbd5e1" stroke-width="1"/>
  <circle cx="515" cy="260" r="3" fill="#ffffff" stroke="#cbd5e1" stroke-width="1"/>
  <text x="525" y="245" font-family="Arial, sans-serif" font-size="8" fill="#475569">💡</text>
  
  <!-- Modern technology elements -->
  <rect x="380" y="140" width="60" height="40" fill="#1f2937" rx="5"/>
  <rect x="385" y="145" width="50" height="30" fill="#3b82f6" rx="3"/>
  <text x="395" y="165" font-family="Arial, sans-serif" font-size="8" fill="#ffffff">SMART</text>
  <text x="395" y="175" font-family="Arial, sans-serif" font-size="8" fill="#ffffff">BOARD</text>
  
  <!-- Title -->
  <text x="400" y="50" font-family="Arial, sans-serif" font-size="24" font-weight="bold" fill="#1e293b" text-anchor="middle">Enseignement Moderne</text>
  <text x="400" y="75" font-family="Arial, sans-serif" font-size="14" fill="#64748b" text-anchor="middle">Pédagogie interactive avec Masomo Pro</text>
</svg>
