<svg viewBox="0 0 800 600" xmlns="http://www.w3.org/2000/svg">
  <!-- Background -->
  <rect width="800" height="600" fill="#f8fafc"/>
  
  <!-- Header -->
  <rect x="0" y="0" width="800" height="60" fill="#1e293b"/>
  <text x="20" y="35" fill="white" font-family="Arial, sans-serif" font-size="20" font-weight="bold">Masomo Pro - Administration École</text>
  
  <!-- Admin Avatar -->
  <circle cx="700" cy="30" r="20" fill="#dc2626"/>
  <text x="695" y="35" fill="white" font-family="Arial, sans-serif" font-size="12">DR</text>
  
  <!-- Main Content -->
  <rect x="20" y="80" width="760" height="500" fill="white" stroke="#e2e8f0" stroke-width="1" rx="8"/>
  
  <!-- Welcome Message -->
  <text x="40" y="110" fill="#1e293b" font-family="Arial, sans-serif" font-size="18" font-weight="bold">Bienvenue, Directeur Mbuyi</text>
  <text x="40" y="130" fill="#64748b" font-family="Arial, sans-serif" font-size="14">École Primaire Kimbanguiste - Vue d'ensemble</text>
  
  <!-- Overview Cards -->
  <rect x="40" y="150" width="170" height="90" fill="#dbeafe" stroke="#3b82f6" stroke-width="2" rx="8"/>
  <text x="50" y="170" fill="#1e40af" font-family="Arial, sans-serif" font-size="12" font-weight="bold">Élèves Inscrits</text>
  <text x="50" y="195" fill="#1e40af" font-family="Arial, sans-serif" font-size="28" font-weight="bold">847</text>
  <text x="50" y="215" fill="#10b981" font-family="Arial, sans-serif" font-size="11">↗ +23 ce mois</text>
  <text x="50" y="230" fill="#64748b" font-family="Arial, sans-serif" font-size="11">6 classes</text>
  
  <rect x="230" y="150" width="170" height="90" fill="#dcfce7" stroke="#22c55e" stroke-width="2" rx="8"/>
  <text x="240" y="170" fill="#15803d" font-family="Arial, sans-serif" font-size="12" font-weight="bold">Enseignants</text>
  <text x="240" y="195" fill="#15803d" font-family="Arial, sans-serif" font-size="28" font-weight="bold">24</text>
  <text x="240" y="215" fill="#22c55e" font-family="Arial, sans-serif" font-size="11">Actifs</text>
  <text x="240" y="230" fill="#64748b" font-family="Arial, sans-serif" font-size="11">2 en congé</text>
  
  <rect x="420" y="150" width="170" height="90" fill="#fef3c7" stroke="#f59e0b" stroke-width="2" rx="8"/>
  <text x="430" y="170" fill="#92400e" font-family="Arial, sans-serif" font-size="12" font-weight="bold">Revenus Mensuels</text>
  <text x="430" y="195" fill="#92400e" font-family="Arial, sans-serif" font-size="22" font-weight="bold">$12,450</text>
  <text x="430" y="215" fill="#f59e0b" font-family="Arial, sans-serif" font-size="11">+8% vs mois passé</text>
  <text x="430" y="230" fill="#64748b" font-family="Arial, sans-serif" font-size="11">85% collecté</text>
  
  <rect x="610" y="150" width="150" height="90" fill="#fce7f3" stroke="#ec4899" stroke-width="2" rx="8"/>
  <text x="620" y="170" fill="#be185d" font-family="Arial, sans-serif" font-size="12" font-weight="bold">Présence Globale</text>
  <text x="620" y="195" fill="#be185d" font-family="Arial, sans-serif" font-size="28" font-weight="bold">92%</text>
  <text x="620" y="215" fill="#ec4899" font-family="Arial, sans-serif" font-size="11">Aujourd'hui</text>
  <text x="620" y="230" fill="#64748b" font-family="Arial, sans-serif" font-size="11">68 absents</text>
  
  <!-- Charts Section -->
  <text x="40" y="270" fill="#1e293b" font-family="Arial, sans-serif" font-size="16" font-weight="bold">Statistiques par Classe</text>
  
  <!-- Bar Chart -->
  <rect x="40" y="280" width="350" height="150" fill="#f8fafc" stroke="#e2e8f0" stroke-width="1" rx="6"/>
  <text x="50" y="300" fill="#64748b" font-family="Arial, sans-serif" font-size="12">Moyenne des Notes par Classe</text>
  
  <!-- Chart bars -->
  <rect x="60" y="350" width="30" height="60" fill="#3b82f6" rx="2"/>
  <text x="70" y="420" fill="#64748b" font-family="Arial, sans-serif" font-size="10">1A</text>
  <text x="70" y="345" fill="#1e293b" font-family="Arial, sans-serif" font-size="10">15.2</text>
  
  <rect x="100" y="330" width="30" height="80" fill="#10b981" rx="2"/>
  <text x="110" y="420" fill="#64748b" font-family="Arial, sans-serif" font-size="10">2A</text>
  <text x="110" y="325" fill="#1e293b" font-family="Arial, sans-serif" font-size="10">16.8</text>
  
  <rect x="140" y="340" width="30" height="70" fill="#f59e0b" rx="2"/>
  <text x="150" y="420" fill="#64748b" font-family="Arial, sans-serif" font-size="10">3A</text>
  <text x="150" y="335" fill="#1e293b" font-family="Arial, sans-serif" font-size="10">15.8</text>
  
  <rect x="180" y="360" width="30" height="50" fill="#8b5cf6" rx="2"/>
  <text x="190" y="420" fill="#64748b" font-family="Arial, sans-serif" font-size="10">4A</text>
  <text x="190" y="355" fill="#1e293b" font-family="Arial, sans-serif" font-size="10">14.2</text>
  
  <rect x="220" y="345" width="30" height="65" fill="#ef4444" rx="2"/>
  <text x="230" y="420" fill="#64748b" font-family="Arial, sans-serif" font-size="10">5A</text>
  <text x="230" y="340" fill="#1e293b" font-family="Arial, sans-serif" font-size="10">15.5</text>
  
  <rect x="260" y="355" width="30" height="55" fill="#06b6d4" rx="2"/>
  <text x="270" y="420" fill="#64748b" font-family="Arial, sans-serif" font-size="10">6A</text>
  <text x="270" y="350" fill="#1e293b" font-family="Arial, sans-serif" font-size="10">14.8</text>
  
  <!-- Financial Overview -->
  <rect x="410" y="280" width="350" height="150" fill="#f8fafc" stroke="#e2e8f0" stroke-width="1" rx="6"/>
  <text x="420" y="300" fill="#64748b" font-family="Arial, sans-serif" font-size="12">Aperçu Financier</text>
  
  <!-- Financial items -->
  <rect x="430" y="320" width="150" height="25" fill="#dcfce7" rx="4"/>
  <text x="440" y="337" fill="#15803d" font-family="Arial, sans-serif" font-size="11">Frais collectés: $10,583</text>
  
  <rect x="430" y="350" width="150" height="25" fill="#fef3c7" rx="4"/>
  <text x="440" y="367" fill="#92400e" font-family="Arial, sans-serif" font-size="11">En attente: $1,867</text>
  
  <rect x="430" y="380" width="150" height="25" fill="#fce7f3" rx="4"/>
  <text x="440" y="397" fill="#be185d" font-family="Arial, sans-serif" font-size="11">Dépenses: $8,450</text>
  
  <rect x="590" y="320" width="150" height="80" fill="#e0e7ff" stroke="#6366f1" stroke-width="1" rx="6"/>
  <text x="600" y="340" fill="#4338ca" font-family="Arial, sans-serif" font-size="12" font-weight="bold">Bénéfice Net</text>
  <text x="600" y="365" fill="#4338ca" font-family="Arial, sans-serif" font-size="24" font-weight="bold">$2,133</text>
  <text x="600" y="385" fill="#6366f1" font-family="Arial, sans-serif" font-size="11">Ce mois</text>
  
  <!-- Recent Activities -->
  <text x="40" y="460" fill="#1e293b" font-family="Arial, sans-serif" font-size="16" font-weight="bold">Activités Récentes</text>
  
  <rect x="40" y="470" width="720" height="90" fill="#f1f5f9" stroke="#e2e8f0" stroke-width="1" rx="6"/>
  
  <circle cx="60" cy="490" r="5" fill="#3b82f6"/>
  <text x="80" y="487" fill="#1e293b" font-family="Arial, sans-serif" font-size="11" font-weight="bold">Nouvelle inscription</text>
  <text x="80" y="500" fill="#64748b" font-family="Arial, sans-serif" font-size="10">Mwanza Paul - 2ème Primaire</text>
  <text x="650" y="495" fill="#64748b" font-family="Arial, sans-serif" font-size="10">Il y a 1h</text>
  
  <circle cx="60" cy="515" r="5" fill="#22c55e"/>
  <text x="80" y="512" fill="#1e293b" font-family="Arial, sans-serif" font-size="11" font-weight="bold">Paiement reçu</text>
  <text x="80" y="525" fill="#64748b" font-family="Arial, sans-serif" font-size="10">$150 - Famille Mbaki</text>
  <text x="650" y="520" fill="#64748b" font-family="Arial, sans-serif" font-size="10">Il y a 2h</text>
  
  <circle cx="60" cy="540" r="5" fill="#f59e0b"/>
  <text x="80" y="537" fill="#1e293b" font-family="Arial, sans-serif" font-size="11" font-weight="bold">Rapport mensuel généré</text>
  <text x="80" y="550" fill="#64748b" font-family="Arial, sans-serif" font-size="10">Bulletin de performance - Janvier 2024</text>
  <text x="650" y="545" fill="#64748b" font-family="Arial, sans-serif" font-size="10">Il y a 3h</text>
</svg>
