<svg viewBox="0 0 800 600" xmlns="http://www.w3.org/2000/svg">
  <!-- Background -->
  <rect width="800" height="600" fill="#f8fafc"/>
  
  <!-- Browser Frame -->
  <rect x="50" y="50" width="700" height="500" rx="8" fill="#ffffff" stroke="#e2e8f0" stroke-width="2"/>
  
  <!-- Browser Header -->
  <rect x="50" y="50" width="700" height="40" rx="8" fill="#f1f5f9"/>
  <circle cx="80" cy="70" r="5" fill="#ef4444"/>
  <circle cx="100" cy="70" r="5" fill="#f59e0b"/>
  <circle cx="120" cy="70" r="5" fill="#10b981"/>
  
  <!-- Header Navigation -->
  <rect x="70" y="110" width="660" height="60" rx="4" fill="#16a34a"/>
  <rect x="90" y="125" width="40" height="30" rx="4" fill="#15803d"/>
  <text x="115" y="145" fill="white" font-family="Arial, sans-serif" font-size="14" font-weight="bold">MP</text>
  <text x="150" y="145" fill="white" font-family="Arial, sans-serif" font-size="16" font-weight="bold">Masomo Pro - Professeur</text>
  
  <!-- Navigation Menu -->
  <rect x="400" y="130" width="80" height="20" rx="10" fill="#4ade80"/>
  <rect x="490" y="130" width="60" height="20" rx="10" fill="#4ade80"/>
  <rect x="560" y="130" width="70" height="20" rx="10" fill="#4ade80"/>
  
  <!-- Main Content Area -->
  <rect x="70" y="190" width="660" height="320" rx="4" fill="#ffffff" stroke="#e2e8f0"/>
  
  <!-- Teacher Dashboard -->
  <text x="90" y="220" fill="#1f2937" font-family="Arial, sans-serif" font-size="20" font-weight="bold">Gestion des Classes - Prof. Kibila</text>
  <text x="90" y="240" fill="#6b7280" font-family="Arial, sans-serif" font-size="12">Mathématiques - 4ème & 5ème Primaire</text>
  
  <!-- Class Selection -->
  <rect x="90" y="260" width="150" height="35" rx="4" fill="#dcfce7" stroke="#16a34a"/>
  <text x="100" y="275" fill="#1f2937" font-family="Arial, sans-serif" font-size="12" font-weight="bold">4ème Primaire A</text>
  <text x="100" y="285" fill="#16a34a" font-family="Arial, sans-serif" font-size="10">24 élèves</text>
  
  <rect x="260" y="260" width="150" height="35" rx="4" fill="#fef3c7" stroke="#f59e0b"/>
  <text x="270" y="275" fill="#1f2937" font-family="Arial, sans-serif" font-size="12" font-weight="bold">5ème Primaire B</text>
  <text x="270" y="285" fill="#f59e0b" font-family="Arial, sans-serif" font-size="10">28 élèves</text>
  
  <!-- Grade Entry Table -->
  <rect x="90" y="320" width="620" height="180" rx="8" fill="#f9fafb" stroke="#d1d5db"/>
  <text x="100" y="340" fill="#1f2937" font-family="Arial, sans-serif" font-size="16" font-weight="bold">Saisie des Notes - 4ème Primaire A</text>
  
  <!-- Table Header -->
  <rect x="100" y="350" width="600" height="25" rx="4" fill="#e5e7eb"/>
  <text x="110" y="365" fill="#1f2937" font-family="Arial, sans-serif" font-size="11" font-weight="bold">Nom de l'élève</text>
  <text x="300" y="365" fill="#1f2937" font-family="Arial, sans-serif" font-size="11" font-weight="bold">Devoir 1</text>
  <text x="380" y="365" fill="#1f2937" font-family="Arial, sans-serif" font-size="11" font-weight="bold">Devoir 2</text>
  <text x="460" y="365" fill="#1f2937" font-family="Arial, sans-serif" font-size="11" font-weight="bold">Examen</text>
  <text x="540" y="365" fill="#1f2937" font-family="Arial, sans-serif" font-size="11" font-weight="bold">Moyenne</text>
  <text x="620" y="365" fill="#1f2937" font-family="Arial, sans-serif" font-size="11" font-weight="bold">Actions</text>
  
  <!-- Student Rows -->
  <rect x="100" y="380" width="600" height="20" rx="2" fill="#ffffff"/>
  <text x="110" y="392" fill="#1f2937" font-family="Arial, sans-serif" font-size="10">Amani Kasongo</text>
  <text x="315" y="392" fill="#16a34a" font-family="Arial, sans-serif" font-size="10">16/20</text>
  <text x="395" y="392" fill="#16a34a" font-family="Arial, sans-serif" font-size="10">18/20</text>
  <text x="475" y="392" fill="#16a34a" font-family="Arial, sans-serif" font-size="10">17/20</text>
  <text x="555" y="392" fill="#16a34a" font-family="Arial, sans-serif" font-size="10" font-weight="bold">17.0</text>
  <rect x="630" y="383" width="30" height="14" rx="2" fill="#3b82f6"/>
  <text x="638" y="392" fill="white" font-family="Arial, sans-serif" font-size="8">Modifier</text>
  
  <rect x="100" y="405" width="600" height="20" rx="2" fill="#f9fafb"/>
  <text x="110" y="417" fill="#1f2937" font-family="Arial, sans-serif" font-size="10">Bintou Mwamba</text>
  <text x="315" y="417" fill="#16a34a" font-family="Arial, sans-serif" font-size="10">14/20</text>
  <text x="395" y="417" fill="#f59e0b" font-family="Arial, sans-serif" font-size="10">12/20</text>
  <text x="475" y="417" fill="#16a34a" font-family="Arial, sans-serif" font-size="10">15/20</text>
  <text x="555" y="417" fill="#f59e0b" font-family="Arial, sans-serif" font-size="10" font-weight="bold">13.7</text>
  <rect x="630" y="408" width="30" height="14" rx="2" fill="#3b82f6"/>
  <text x="638" y="417" fill="white" font-family="Arial, sans-serif" font-size="8">Modifier</text>
  
  <rect x="100" y="430" width="600" height="20" rx="2" fill="#ffffff"/>
  <text x="110" y="442" fill="#1f2937" font-family="Arial, sans-serif" font-size="10">Cédric Mukendi</text>
  <text x="315" y="442" fill="#16a34a" font-family="Arial, sans-serif" font-size="10">19/20</text>
  <text x="395" y="442" fill="#16a34a" font-family="Arial, sans-serif" font-size="10">17/20</text>
  <text x="475" y="442" fill="#16a34a" font-family="Arial, sans-serif" font-size="10">18/20</text>
  <text x="555" y="442" fill="#16a34a" font-family="Arial, sans-serif" font-size="10" font-weight="bold">18.0</text>
  <rect x="630" y="433" width="30" height="14" rx="2" fill="#3b82f6"/>
  <text x="638" y="442" fill="white" font-family="Arial, sans-serif" font-size="8">Modifier</text>
  
  <!-- Attendance Section -->
  <rect x="430" y="260" width="280" height="50" rx="4" fill="#dbeafe" stroke="#3b82f6"/>
  <text x="440" y="275" fill="#1f2937" font-family="Arial, sans-serif" font-size="12" font-weight="bold">Présences du jour</text>
  <text x="440" y="290" fill="#3b82f6" font-family="Arial, sans-serif" font-size="10">22/24 élèves présents</text>
  <text x="440" y="302" fill="#16a34a" font-family="Arial, sans-serif" font-size="10">Taux: 91.7%</text>
  
  <rect x="580" y="267" width="60" height="20" rx="4" fill="#3b82f6"/>
  <text x="590" y="279" fill="white" font-family="Arial, sans-serif" font-size="9">Prendre présence</text>
  
  <rect x="580" y="290" width="60" height="15" rx="4" fill="#16a34a"/>
  <text x="590" y="299" fill="white" font-family="Arial, sans-serif" font-size="8">Rapport</text>
  
  <!-- Action Buttons -->
  <rect x="450" y="470" width="80" height="25" rx="4" fill="#16a34a"/>
  <text x="465" y="485" fill="white" font-family="Arial, sans-serif" font-size="10">Sauvegarder</text>
  
  <rect x="540" y="470" width="80" height="25" rx="4" fill="#3b82f6"/>
  <text x="555" y="485" fill="white" font-family="Arial, sans-serif" font-size="10">Générer Bulletin</text>
  
  <rect x="630" y="470" width="80" height="25" rx="4" fill="#7c3aed"/>
  <text x="645" y="485" fill="white" font-family="Arial, sans-serif" font-size="10">Envoyer Parents</text>
</svg>
