<svg viewBox="0 0 800 600" xmlns="http://www.w3.org/2000/svg">
  <!-- Background -->
  <rect width="800" height="600" fill="#f8fafc"/>
  
  <!-- Browser Frame -->
  <rect x="50" y="50" width="700" height="500" rx="8" fill="#ffffff" stroke="#e2e8f0" stroke-width="2"/>
  
  <!-- Browser Header -->
  <rect x="50" y="50" width="700" height="40" rx="8" fill="#f1f5f9"/>
  <circle cx="80" cy="70" r="5" fill="#ef4444"/>
  <circle cx="100" cy="70" r="5" fill="#f59e0b"/>
  <circle cx="120" cy="70" r="5" fill="#10b981"/>
  
  <!-- Header Navigation -->
  <rect x="70" y="110" width="660" height="60" rx="4" fill="#3b82f6"/>
  <rect x="90" y="125" width="40" height="30" rx="4" fill="#1d4ed8"/>
  <text x="115" y="145" fill="white" font-family="Arial, sans-serif" font-size="14" font-weight="bold">MP</text>
  <text x="150" y="145" fill="white" font-family="Arial, sans-serif" font-size="16" font-weight="bold">Masomo Pro</text>
  
  <!-- Navigation Menu -->
  <rect x="400" y="130" width="80" height="20" rx="10" fill="#60a5fa"/>
  <rect x="490" y="130" width="60" height="20" rx="10" fill="#60a5fa"/>
  <rect x="560" y="130" width="70" height="20" rx="10" fill="#60a5fa"/>
  
  <!-- Main Content Area -->
  <rect x="70" y="190" width="660" height="320" rx="4" fill="#ffffff" stroke="#e2e8f0"/>
  
  <!-- Student Dashboard -->
  <text x="90" y="220" fill="#1f2937" font-family="Arial, sans-serif" font-size="20" font-weight="bold">Dashboard Étudiant</text>
  
  <!-- Student Info Card -->
  <rect x="90" y="240" width="200" height="100" rx="8" fill="#dbeafe" stroke="#3b82f6"/>
  <circle cx="140" cy="270" r="15" fill="#3b82f6"/>
  <text x="165" y="270" fill="#1f2937" font-family="Arial, sans-serif" font-size="14" font-weight="bold">Amina Kabila</text>
  <text x="165" y="285" fill="#6b7280" font-family="Arial, sans-serif" font-size="12">Classe: 5ème Primaire</text>
  <text x="165" y="300" fill="#6b7280" font-family="Arial, sans-serif" font-size="12">École: Complexe Scolaire Uhuru</text>
  
  <!-- Grades Section -->
  <rect x="310" y="240" width="200" height="100" rx="8" fill="#dcfce7" stroke="#16a34a"/>
  <text x="320" y="260" fill="#1f2937" font-family="Arial, sans-serif" font-size="14" font-weight="bold">Mes Notes</text>
  <text x="320" y="280" fill="#16a34a" font-family="Arial, sans-serif" font-size="12">Mathématiques: 16/20</text>
  <text x="320" y="295" fill="#16a34a" font-family="Arial, sans-serif" font-size="12">Français: 14/20</text>
  <text x="320" y="310" fill="#16a34a" font-family="Arial, sans-serif" font-size="12">Sciences: 17/20</text>
  <text x="320" y="325" fill="#16a34a" font-family="Arial, sans-serif" font-size="12">Moyenne: 15.7/20</text>
  
  <!-- Attendance Section -->
  <rect x="530" y="240" width="180" height="100" rx="8" fill="#fef3c7" stroke="#f59e0b"/>
  <text x="540" y="260" fill="#1f2937" font-family="Arial, sans-serif" font-size="14" font-weight="bold">Présences</text>
  <text x="540" y="280" fill="#92400e" font-family="Arial, sans-serif" font-size="12">Ce mois: 18/20 jours</text>
  <text x="540" y="295" fill="#92400e" font-family="Arial, sans-serif" font-size="12">Taux: 90%</text>
  <rect x="540" y="305" width="120" height="8" rx="4" fill="#fbbf24"/>
  <rect x="540" y="305" width="108" height="8" rx="4" fill="#f59e0b"/>
  
  <!-- Schedule Section -->
  <rect x="90" y="360" width="620" height="120" rx="8" fill="#f3f4f6" stroke="#d1d5db"/>
  <text x="100" y="380" fill="#1f2937" font-family="Arial, sans-serif" font-size="16" font-weight="bold">Emploi du Temps - Lundi</text>
  
  <!-- Time slots -->
  <rect x="100" y="390" width="100" height="30" rx="4" fill="#3b82f6"/>
  <text x="105" y="407" fill="white" font-family="Arial, sans-serif" font-size="10">08:00 - 09:00</text>
  <text x="105" y="418" fill="white" font-family="Arial, sans-serif" font-size="10">Mathématiques</text>
  
  <rect x="210" y="390" width="100" height="30" rx="4" fill="#16a34a"/>
  <text x="215" y="407" fill="white" font-family="Arial, sans-serif" font-size="10">09:00 - 10:00</text>
  <text x="215" y="418" fill="white" font-family="Arial, sans-serif" font-size="10">Français</text>
  
  <rect x="320" y="390" width="100" height="30" rx="4" fill="#dc2626"/>
  <text x="325" y="407" fill="white" font-family="Arial, sans-serif" font-size="10">10:00 - 11:00</text>
  <text x="325" y="418" fill="white" font-family="Arial, sans-serif" font-size="10">Sciences</text>
  
  <rect x="430" y="390" width="100" height="30" rx="4" fill="#7c3aed"/>
  <text x="435" y="407" fill="white" font-family="Arial, sans-serif" font-size="10">11:00 - 12:00</text>
  <text x="435" y="418" fill="white" font-family="Arial, sans-serif" font-size="10">Histoire</text>
  
  <rect x="540" y="390" width="100" height="30" rx="4" fill="#ea580c"/>
  <text x="545" y="407" fill="white" font-family="Arial, sans-serif" font-size="10">14:00 - 15:00</text>
  <text x="545" y="418" fill="white" font-family="Arial, sans-serif" font-size="10">Éducation Physique</text>
  
  <!-- Assignments -->
  <rect x="100" y="435" width="280" height="35" rx="4" fill="#fef2f2" stroke="#f87171"/>
  <text x="110" y="450" fill="#dc2626" font-family="Arial, sans-serif" font-size="12" font-weight="bold">Devoirs à rendre</text>
  <text x="110" y="462" fill="#7f1d1d" font-family="Arial, sans-serif" font-size="10">Mathématiques: Exercices 1-5 (pour demain)</text>
  
  <!-- Messages -->
  <rect x="390" y="435" width="320" height="35" rx="4" fill="#f0f9ff" stroke="#0ea5e9"/>
  <text x="400" y="450" fill="#0369a1" font-family="Arial, sans-serif" font-size="12" font-weight="bold">Message du professeur</text>
  <text x="400" y="462" fill="#0c4a6e" font-family="Arial, sans-serif" font-size="10">Réunion parents-profs le 15 janvier à 16h</text>
</svg>
