<svg viewBox="0 0 800 600" xmlns="http://www.w3.org/2000/svg">
  <!-- Background -->
  <rect width="800" height="600" fill="#f8fafc"/>
  
  <!-- Browser Frame -->
  <rect x="50" y="50" width="700" height="500" rx="8" fill="#ffffff" stroke="#e2e8f0" stroke-width="2"/>
  
  <!-- Browser Header -->
  <rect x="50" y="50" width="700" height="40" rx="8" fill="#f1f5f9"/>
  <circle cx="80" cy="70" r="5" fill="#ef4444"/>
  <circle cx="100" cy="70" r="5" fill="#f59e0b"/>
  <circle cx="120" cy="70" r="5" fill="#10b981"/>
  
  <!-- Header Navigation -->
  <rect x="70" y="110" width="660" height="60" rx="4" fill="#7c3aed"/>
  <rect x="90" y="125" width="40" height="30" rx="4" fill="#5b21b6"/>
  <text x="115" y="145" fill="white" font-family="Arial, sans-serif" font-size="14" font-weight="bold">MP</text>
  <text x="150" y="145" fill="white" font-family="Arial, sans-serif" font-size="16" font-weight="bold">Masomo Pro - Admin</text>
  
  <!-- Navigation Menu -->
  <rect x="400" y="130" width="80" height="20" rx="10" fill="#a78bfa"/>
  <rect x="490" y="130" width="60" height="20" rx="10" fill="#a78bfa"/>
  <rect x="560" y="130" width="70" height="20" rx="10" fill="#a78bfa"/>
  
  <!-- Sidebar -->
  <rect x="70" y="190" width="180" height="320" rx="4" fill="#fafafa" stroke="#e2e8f0"/>
  <text x="85" y="215" fill="#1f2937" font-family="Arial, sans-serif" font-size="14" font-weight="bold">Menu Principal</text>
  
  <!-- Sidebar Menu Items -->
  <rect x="85" y="230" width="150" height="25" rx="4" fill="#7c3aed"/>
  <text x="95" y="245" fill="white" font-family="Arial, sans-serif" font-size="12">Dashboard</text>
  
  <rect x="85" y="260" width="150" height="25" rx="4" fill="#f3f4f6"/>
  <text x="95" y="275" fill="#374151" font-family="Arial, sans-serif" font-size="12">Étudiants</text>
  
  <rect x="85" y="290" width="150" height="25" rx="4" fill="#f3f4f6"/>
  <text x="95" y="305" fill="#374151" font-family="Arial, sans-serif" font-size="12">Professeurs</text>
  
  <rect x="85" y="320" width="150" height="25" rx="4" fill="#f3f4f6"/>
  <text x="95" y="335" fill="#374151" font-family="Arial, sans-serif" font-size="12">Classes</text>
  
  <rect x="85" y="350" width="150" height="25" rx="4" fill="#f3f4f6"/>
  <text x="95" y="365" fill="#374151" font-family="Arial, sans-serif" font-size="12">Finances</text>
  
  <rect x="85" y="380" width="150" height="25" rx="4" fill="#f3f4f6"/>
  <text x="95" y="395" fill="#374151" font-family="Arial, sans-serif" font-size="12">Rapports</text>
  
  <!-- Main Content Area -->
  <rect x="270" y="190" width="460" height="320" rx="4" fill="#ffffff" stroke="#e2e8f0"/>
  
  <!-- Dashboard Header -->
  <text x="290" y="220" fill="#1f2937" font-family="Arial, sans-serif" font-size="18" font-weight="bold">Dashboard Administrateur</text>
  <text x="290" y="240" fill="#6b7280" font-family="Arial, sans-serif" font-size="12">École Primaire Uhuru - Kinshasa</text>
  
  <!-- Stats Cards -->
  <rect x="290" y="260" width="100" height="80" rx="8" fill="#dbeafe" stroke="#3b82f6"/>
  <text x="300" y="280" fill="#1f2937" font-family="Arial, sans-serif" font-size="24" font-weight="bold">450</text>
  <text x="300" y="295" fill="#3b82f6" font-family="Arial, sans-serif" font-size="12">Étudiants</text>
  <text x="300" y="310" fill="#16a34a" font-family="Arial, sans-serif" font-size="10">+12 ce mois</text>
  <text x="300" y="325" fill="#16a34a" font-family="Arial, sans-serif" font-size="10">↗ +2.7%</text>
  
  <rect x="410" y="260" width="100" height="80" rx="8" fill="#dcfce7" stroke="#16a34a"/>
  <text x="420" y="280" fill="#1f2937" font-family="Arial, sans-serif" font-size="24" font-weight="bold">24</text>
  <text x="420" y="295" fill="#16a34a" font-family="Arial, sans-serif" font-size="12">Professeurs</text>
  <text x="420" y="310" fill="#16a34a" font-family="Arial, sans-serif" font-size="10">Actifs</text>
  <text x="420" y="325" fill="#16a34a" font-family="Arial, sans-serif" font-size="10">100%</text>
  
  <rect x="530" y="260" width="100" height="80" rx="8" fill="#fef3c7" stroke="#f59e0b"/>
  <text x="540" y="280" fill="#1f2937" font-family="Arial, sans-serif" font-size="20" font-weight="bold">87%</text>
  <text x="540" y="295" fill="#f59e0b" font-family="Arial, sans-serif" font-size="12">Présences</text>
  <text x="540" y="310" fill="#16a34a" font-family="Arial, sans-serif" font-size="10">Cette semaine</text>
  <text x="540" y="325" fill="#16a34a" font-family="Arial, sans-serif" font-size="10">Très bon</text>
  
  <rect x="630" y="260" width="80" height="80" rx="8" fill="#fed7d7" stroke="#e53e3e"/>
  <text x="640" y="280" fill="#1f2937" font-family="Arial, sans-serif" font-size="16" font-weight="bold">42K FC</text>
  <text x="640" y="295" fill="#e53e3e" font-family="Arial, sans-serif" font-size="12">Impayés</text>
  <text x="640" y="310" fill="#e53e3e" font-family="Arial, sans-serif" font-size="10">À recouvrer</text>
  
  <!-- Recent Activity -->
  <rect x="290" y="360" width="420" height="120" rx="8" fill="#f9fafb" stroke="#d1d5db"/>
  <text x="300" y="380" fill="#1f2937" font-family="Arial, sans-serif" font-size="16" font-weight="bold">Activités Récentes</text>
  
  <!-- Activity Items -->
  <rect x="300" y="390" width="400" height="20" rx="4" fill="#ffffff"/>
  <circle cx="310" cy="400" r="4" fill="#3b82f6"/>
  <text x="320" y="403" fill="#1f2937" font-family="Arial, sans-serif" font-size="11">Nouvel étudiant inscrit: Mbuyi Kalala - 3ème Primaire</text>
  
  <rect x="300" y="415" width="400" height="20" rx="4" fill="#ffffff"/>
  <circle cx="310" cy="425" r="4" fill="#16a34a"/>
  <text x="320" y="428" fill="#1f2937" font-family="Arial, sans-serif" font-size="11">Paiement reçu: 15,000 FC - Frais de scolarité</text>
  
  <rect x="300" y="440" width="400" height="20" rx="4" fill="#ffffff"/>
  <circle cx="310" cy="450" r="4" fill="#f59e0b"/>
  <text x="320" y="453" fill="#1f2937" font-family="Arial, sans-serif" font-size="11">Bulletin généré pour la classe 4ème Primaire</text>
  
  <!-- Quick Actions -->
  <rect x="500" y="390" width="80" height="25" rx="4" fill="#3b82f6"/>
  <text x="510" y="405" fill="white" font-family="Arial, sans-serif" font-size="10">Nouveau</text>
  
  <rect x="590" y="390" width="80" height="25" rx="4" fill="#16a34a"/>
  <text x="600" y="405" fill="white" font-family="Arial, sans-serif" font-size="10">Rapport</text>
  
  <rect x="590" y="420" width="80" height="25" rx="4" fill="#7c3aed"/>
  <text x="600" y="435" fill="white" font-family="Arial, sans-serif" font-size="10">Messages</text>
</svg>
