<svg width="400" height="300" viewBox="0 0 400 300" xmlns="http://www.w3.org/2000/svg">
  <!-- Background -->
  <rect width="400" height="300" fill="#f8fafc"/>
  
  <!-- Header -->
  <rect width="400" height="60" fill="#059669"/>
  <text x="20" y="38" font-family="Arial, sans-serif" font-size="18" font-weight="bold" fill="white">Gestion des Élèves</text>
  
  <!-- Search bar -->
  <rect x="20" y="80" width="360" height="32" fill="white" stroke="#d1d5db" stroke-width="1" rx="6"/>
  <text x="30" y="100" font-family="Arial, sans-serif" font-size="12" fill="#9ca3af">Rechercher un élève...</text>
  
  <!-- Table header -->
  <rect x="20" y="130" width="360" height="30" fill="#f3f4f6"/>
  <text x="30" y="148" font-family="Arial, sans-serif" font-size="11" font-weight="bold" fill="#374151">Nom</text>
  <text x="150" y="148" font-family="Arial, sans-serif" font-size="11" font-weight="bold" fill="#374151">Classe</text>
  <text x="220" y="148" font-family="Arial, sans-serif" font-size="11" font-weight="bold" fill="#374151">Section</text>
  <text x="290" y="148" font-family="Arial, sans-serif" font-size="11" font-weight="bold" fill="#374151">Statut</text>
  
  <!-- Student rows -->
  <rect x="20" y="160" width="360" height="25" fill="white" stroke="#e5e7eb" stroke-width="0.5"/>
  <circle cx="40" cy="172" r="8" fill="#dbeafe"/>
  <text x="36" y="176" font-family="Arial, sans-serif" font-size="8" font-weight="bold" fill="#1e40af">JK</text>
  <text x="60" y="176" font-family="Arial, sans-serif" font-size="11" fill="#111827">Jean Kabila</text>
  <text x="150" y="176" font-family="Arial, sans-serif" font-size="11" fill="#6b7280">6ème A</text>
  <text x="220" y="176" font-family="Arial, sans-serif" font-size="11" fill="#6b7280">Primaire</text>
  <rect x="290" y="167" width="40" height="10" fill="#dcfce7" rx="5"/>
  <text x="295" y="174" font-family="Arial, sans-serif" font-size="8" fill="#166534">Actif</text>
  
  <rect x="20" y="185" width="360" height="25" fill="#f9fafb" stroke="#e5e7eb" stroke-width="0.5"/>
  <circle cx="40" cy="197" r="8" fill="#fecaca"/>
  <text x="36" y="201" font-family="Arial, sans-serif" font-size="8" font-weight="bold" fill="#dc2626">MN</text>
  <text x="60" y="201" font-family="Arial, sans-serif" font-size="11" fill="#111827">Marie Ngoy</text>
  <text x="150" y="201" font-family="Arial, sans-serif" font-size="11" fill="#6b7280">3ème S</text>
  <text x="220" y="201" font-family="Arial, sans-serif" font-size="11" fill="#6b7280">Secondaire</text>
  <rect x="290" y="192" width="40" height="10" fill="#dcfce7" rx="5"/>
  <text x="295" y="199" font-family="Arial, sans-serif" font-size="8" fill="#166534">Actif</text>
  
  <rect x="20" y="210" width="360" height="25" fill="white" stroke="#e5e7eb" stroke-width="0.5"/>
  <circle cx="40" cy="222" r="8" fill="#fef3c7"/>
  <text x="36" y="226" font-family="Arial, sans-serif" font-size="8" font-weight="bold" fill="#92400e">PL</text>
  <text x="60" y="226" font-family="Arial, sans-serif" font-size="11" fill="#111827">Patrick Lumumba</text>
  <text x="150" y="226" font-family="Arial, sans-serif" font-size="11" fill="#6b7280">5ème C</text>
  <text x="220" y="226" font-family="Arial, sans-serif" font-size="11" fill="#6b7280">Secondaire</text>
  <rect x="290" y="217" width="40" height="10" fill="#fef3c7" rx="5"/>
  <text x="295" y="224" font-family="Arial, sans-serif" font-size="8" fill="#92400e">Suspendu</text>
  
  <!-- Add button -->
  <rect x="320" y="250" width="60" height="30" fill="#059669" rx="6"/>
  <text x="335" y="268" font-family="Arial, sans-serif" font-size="11" font-weight="bold" fill="white">+ Ajouter</text>
  
  <!-- Stats -->
  <rect x="20" y="250" width="80" height="30" fill="#f3f4f6" rx="4"/>
  <text x="25" y="262" font-family="Arial, sans-serif" font-size="10" fill="#6b7280">Total élèves</text>
  <text x="25" y="275" font-family="Arial, sans-serif" font-size="14" font-weight="bold" fill="#111827">1,234</text>
</svg>
