<svg viewBox="0 0 800 600" xmlns="http://www.w3.org/2000/svg">
  <!-- Background -->
  <rect width="800" height="600" fill="#f0f9ff"/>
  
  <!-- Computer Screen -->
  <rect x="50" y="80" width="700" height="440" rx="20" fill="#1f2937"/>
  <rect x="70" y="100" width="660" height="380" rx="10" fill="#ffffff"/>
  
  <!-- Header -->
  <rect x="70" y="100" width="660" height="60" fill="#16a34a"/>
  <text x="90" y="130" fill="white" font-family="Arial, sans-serif" font-size="18" font-weight="bold">Gestion Académique - Bulletin Scolaire</text>
  
  <!-- Student Info -->
  <rect x="90" y="180" width="640" height="60" fill="#f8fafc" stroke="#e2e8f0"/>
  <text x="110" y="200" fill="#1f2937" font-family="Arial, sans-serif" font-size="16" font-weight="bold">Élève: MUKENDI Jean Marie</text>
  <text x="110" y="220" fill="#64748b" font-family="Arial, sans-serif" font-size="14">Classe: 6ème A | Année: 2024-2025 | Trimestre: 1er</text>
  
  <!-- Grades Table -->
  <rect x="90" y="260" width="640" height="200" fill="#ffffff" stroke="#e2e8f0"/>
  
  <!-- Table Header -->
  <rect x="90" y="260" width="640" height="30" fill="#f1f5f9"/>
  <text x="110" y="278" fill="#374151" font-family="Arial, sans-serif" font-size="12" font-weight="bold">Matière</text>
  <text x="300" y="278" fill="#374151" font-family="Arial, sans-serif" font-size="12" font-weight="bold">Note</text>
  <text x="400" y="278" fill="#374151" font-family="Arial, sans-serif" font-size="12" font-weight="bold">Coef</text>
  <text x="500" y="278" fill="#374151" font-family="Arial, sans-serif" font-size="12" font-weight="bold">Moyenne</text>
  <text x="600" y="278" fill="#374151" font-family="Arial, sans-serif" font-size="12" font-weight="bold">Appréciation</text>
  
  <!-- Subject Rows -->
  <g>
    <!-- Math -->
    <rect x="90" y="290" width="640" height="25" fill="#ffffff"/>
    <text x="110" y="305" fill="#374151" font-family="Arial, sans-serif" font-size="12">Mathématiques</text>
    <text x="300" y="305" fill="#374151" font-family="Arial, sans-serif" font-size="12">16/20</text>
    <text x="400" y="305" fill="#374151" font-family="Arial, sans-serif" font-size="12">4</text>
    <text x="500" y="305" fill="#374151" font-family="Arial, sans-serif" font-size="12">16/20</text>
    <rect x="590" y="295" width="60" height="15" rx="7" fill="#dcfce7"/>
    <text x="610" y="305" fill="#16a34a" font-family="Arial, sans-serif" font-size="10">Bien</text>
    
    <!-- French -->
    <rect x="90" y="315" width="640" height="25" fill="#f8fafc"/>
    <text x="110" y="330" fill="#374151" font-family="Arial, sans-serif" font-size="12">Français</text>
    <text x="300" y="330" fill="#374151" font-family="Arial, sans-serif" font-size="12">14/20</text>
    <text x="400" y="330" fill="#374151" font-family="Arial, sans-serif" font-size="12">3</text>
    <text x="500" y="330" fill="#374151" font-family="Arial, sans-serif" font-size="12">14/20</text>
    <rect x="590" y="320" width="60" height="15" rx="7" fill="#fef3c7"/>
    <text x="610" y="330" fill="#d97706" font-family="Arial, sans-serif" font-size="10">A.Bien</text>
    
    <!-- Science -->
    <rect x="90" y="340" width="640" height="25" fill="#ffffff"/>
    <text x="110" y="355" fill="#374151" font-family="Arial, sans-serif" font-size="12">Sciences</text>
    <text x="300" y="355" fill="#374151" font-family="Arial, sans-serif" font-size="12">17/20</text>
    <text x="400" y="355" fill="#374151" font-family="Arial, sans-serif" font-size="12">3</text>
    <text x="500" y="355" fill="#374151" font-family="Arial, sans-serif" font-size="12">17/20</text>
    <rect x="590" y="345" width="60" height="15" rx="7" fill="#dcfce7"/>
    <text x="610" y="355" fill="#16a34a" font-family="Arial, sans-serif" font-size="10">T.Bien</text>
    
    <!-- History -->
    <rect x="90" y="365" width="640" height="25" fill="#f8fafc"/>
    <text x="110" y="380" fill="#374151" font-family="Arial, sans-serif" font-size="12">Histoire</text>
    <text x="300" y="380" fill="#374151" font-family="Arial, sans-serif" font-size="12">13/20</text>
    <text x="400" y="380" fill="#374151" font-family="Arial, sans-serif" font-size="12">2</text>
    <text x="500" y="380" fill="#374151" font-family="Arial, sans-serif" font-size="12">13/20</text>
    <rect x="590" y="370" width="60" height="15" rx="7" fill="#fef3c7"/>
    <text x="610" y="380" fill="#d97706" font-family="Arial, sans-serif" font-size="10">A.Bien</text>
    
    <!-- English -->
    <rect x="90" y="390" width="640" height="25" fill="#ffffff"/>
    <text x="110" y="405" fill="#374151" font-family="Arial, sans-serif" font-size="12">Anglais</text>
    <text x="300" y="405" fill="#374151" font-family="Arial, sans-serif" font-size="12">15/20</text>
    <text x="400" y="405" fill="#374151" font-family="Arial, sans-serif" font-size="12">2</text>
    <text x="500" y="405" fill="#374151" font-family="Arial, sans-serif" font-size="12">15/20</text>
    <rect x="590" y="395" width="60" height="15" rx="7" fill="#dcfce7"/>
    <text x="610" y="405" fill="#16a34a" font-family="Arial, sans-serif" font-size="10">Bien</text>
    
    <!-- PE -->
    <rect x="90" y="415" width="640" height="25" fill="#f8fafc"/>
    <text x="110" y="430" fill="#374151" font-family="Arial, sans-serif" font-size="12">Éducation Physique</text>
    <text x="300" y="430" fill="#374151" font-family="Arial, sans-serif" font-size="12">18/20</text>
    <text x="400" y="430" fill="#374151" font-family="Arial, sans-serif" font-size="12">1</text>
    <text x="500" y="430" fill="#374151" font-family="Arial, sans-serif" font-size="12">18/20</text>
    <rect x="590" y="420" width="60" height="15" rx="7" fill="#dcfce7"/>
    <text x="610" y="430" fill="#16a34a" font-family="Arial, sans-serif" font-size="10">T.Bien</text>
  </g>
  
  <!-- Summary -->
  <rect x="90" y="470" width="640" height="40" fill="#f0f9ff" stroke="#3b82f6"/>
  <text x="110" y="485" fill="#1f2937" font-family="Arial, sans-serif" font-size="14" font-weight="bold">Moyenne Générale: 15.2/20</text>
  <text x="110" y="500" fill="#1f2937" font-family="Arial, sans-serif" font-size="12">Rang: 3ème/35 | Mention: Bien | Décision: Admis</text>
  
  <!-- Footer -->
  <rect x="50" y="520" width="700" height="50" fill="#374151"/>
  <text x="400" y="548" fill="white" font-family="Arial, sans-serif" font-size="14" text-anchor="middle">Bulletin généré automatiquement par Masomo Pro</text>
</svg>
